<?xml version="1.0" encoding="UTF-8"?>
<svg viewBox="0 0 439.47464 423.97159" xmlns="http://www.w3.org/2000/svg" xmlns:xlink="http://www.w3.org/1999/xlink">
 <defs>
  <linearGradient id="c">
   <stop stop-color="#bfbbc0" offset="0"/>
   <stop stop-color="#bfbbc0" stop-opacity="0" offset="1"/>
  </linearGradient>
  <linearGradient id="d">
   <stop stop-color="#4b424e" offset="0"/>
   <stop stop-color="#4b424e" stop-opacity="0" offset="1"/>
  </linearGradient>
  <linearGradient id="b">
   <stop stop-color="#eeeeec" offset="0"/>
   <stop stop-color="#eeeeec" stop-opacity="0" offset="1"/>
  </linearGradient>
  <linearGradient id="a">
   <stop stop-color="#5a4f60" offset="0"/>
   <stop stop-color="#252120" offset="1"/>
  </linearGradient>
  <linearGradient id="t" x1="212.59" x2="237.19" y1="427.88" y2="455.26" gradientUnits="userSpaceOnUse">
   <stop stop-color="#aca8ae" offset="0"/>
   <stop stop-color="#aca8ae" stop-opacity="0" offset="1"/>
  </linearGradient>
  <linearGradient id="q" x1="257.88" x2="274.34" y1="392.42" y2="413.68" gradientUnits="userSpaceOnUse">
   <stop stop-color="#b7b3b8" offset="0"/>
   <stop stop-color="#b7b3b8" stop-opacity="0" offset="1"/>
  </linearGradient>
  <linearGradient id="k" x1="495.54" x2="456.54" y1="407.79" y2="330.72" gradientUnits="userSpaceOnUse">
   <stop stop-color="#2e3436" offset="0"/>
   <stop stop-color="#2e3436" stop-opacity="0" offset="1"/>
  </linearGradient>
  <linearGradient id="v" x1="213.36" x2="296.94" y1="458.79" y2="463.79" gradientUnits="userSpaceOnUse" xlink:href="#a"/>
  <linearGradient id="u" x1="150.04" x2="174.32" y1="377.68" y2="400.59" gradientUnits="userSpaceOnUse" xlink:href="#c"/>
  <linearGradient id="s" x1="251.09" x2="317.32" y1="414.55" y2="436.55" gradientUnits="userSpaceOnUse" xlink:href="#a"/>
  <linearGradient id="r" x1="209" x2="249.31" y1="332.09" y2="369.09" gradientUnits="userSpaceOnUse" xlink:href="#c"/>
  <linearGradient id="p" x1="421.53" x2="351.55" y1="550.63" y2="497.58" gradientUnits="userSpaceOnUse" xlink:href="#a"/>
  <linearGradient id="o" x1="528.84" x2="472.34" y1="367.48" y2="422.57" gradientUnits="userSpaceOnUse" xlink:href="#a"/>
  <linearGradient id="n" x1="487.88" x2="439.57" y1="472.81" y2="455.81" gradientUnits="userSpaceOnUse" xlink:href="#a"/>
  <linearGradient id="m" x1="259.17" x2="372.08" gradientUnits="userSpaceOnUse" xlink:href="#a"/>
  <linearGradient id="l" x1="401.03" x2="401.37" y1="434.59" y2="477.59" gradientUnits="userSpaceOnUse" xlink:href="#b"/>
  <linearGradient id="j" x1="293.61" x2="369.08" y1="251.98" y2="308.54" gradientUnits="userSpaceOnUse" xlink:href="#b"/>
  <linearGradient id="i" x1="133.67" x2="158" y1="485.93" y2="513.93" gradientUnits="userSpaceOnUse" xlink:href="#b"/>
  <linearGradient id="h" x1="205.41" x2="258.62" y1="498.14" y2="532.07" gradientUnits="userSpaceOnUse" xlink:href="#b"/>
  <linearGradient id="g" x1="327.51" x2="352.97" y1="509.63" y2="535.22" gradientUnits="userSpaceOnUse" xlink:href="#b"/>
  <linearGradient id="f" x1="378.3" x2="348.6" y1="572.24" y2="531.93" gradientUnits="userSpaceOnUse" xlink:href="#d"/>
  <linearGradient id="e" x1="290.01" x2="255.36" y1="557.64" y2="516.27" gradientUnits="userSpaceOnUse" xlink:href="#d"/>
 </defs>
 <g transform="translate(-132.59 -232.4)">
  <path d="m242.43 427.19c-9.0808-3.7105-19.752 13.57-29.552 13.996-25.173 8.0951-54.043-65.037-21.772-51.815 9.1518 10.412-5.5826 16.408 4.9178 19.409 12.337-4.1317 16.853-16.994 2.3691-28.485-25.956-10.907-39.914-10.149-50.614 27.522 4.9078 66.877 47.599 69.227 95.324 85.91 8.9527 3.717 21.842 20.676 29.035 14.179 19.148-17.295-5.8227-70.956-29.708-80.716z" fill="url(#v)" fill-rule="evenodd"/>
  <path d="m173.99 377.68c-12.46 1.0997-18.513 14.12-21.857 24.57-2.7276 6.667-3.145 14.94 0.85724 21.242 2.3914-7.8404 2.7252-16.295 7.0312-23.594 3.4546-9.2262 10.867-16.596 20.202-19.709 7.7181-2.1971-4.1141-2.4624-6.2337-2.5094z" fill="url(#u)" fill-rule="evenodd"/>
  <path d="m239.11 433.04c-8.4801-0.09724-18.056 14.145-26.938 14.531-4.0904 1.3154-8.3051 0.47374-12.312-1.7812 6.2468 6.9222 13.657 11.135 20.781 8.8438 9.8004-0.42593 20.482-17.711 29.562-14 1.5547 0.63525 3.1049 1.4524 4.6562 2.4375-4.2294-4.3406-8.7106-7.6835-13.156-9.5-0.85134-0.34786-1.7165-0.52119-2.5938-0.53125z" fill="url(#t)" fill-rule="evenodd"/>
  <path d="m282.44 392.08c-5.7911-6.1848-20.394 3.5348-28.241 0.3376-22.677-2.7164-18.987-70.526 1.5806-48.518 3.432 11.471-10.294 10.868-3.1337 17.008 11.173 1.2023 19.352-7.2672 12.124-21.506-16.445-17.914-27.674-22.349-49.647 3.3656-20.246 54.264 12.418 71.493 43.869 101.79 5.6882 6.1438 9.6944 24.101 17.683 21.592 21.263-6.6764 20.998-57.796 5.7652-74.065z" fill="url(#s)" fill-rule="evenodd"/>
  <path d="m240.66 327.06c-11.212 1.684-19.825 10.741-25.969 19.531-5.3286 14.819-8.5057 32.014-2.3125 47.031-4.6373-25.044 4.8253-60.516 35.5-60.094 7.977 2.0828 14.521 9.4462 19.312 14.375-2.4622-9.531-11.526-16.189-20.094-20.031-2.0649-0.65662-4.269-1.0298-6.4375-0.8125z" fill="url(#r)" fill-rule="evenodd"/>
  <path d="m241.62 386.71c2.2126 8.9048 6.7163 16.177 13.844 17.031 7.8465 3.1972 22.459-6.5286 28.25-0.34375 2.4598 2.627 4.5359 6.1706 6.1875 10.281-1.8414-6.6614-4.6001-12.45-8.1875-16.281-5.7911-6.1848-20.404 3.5409-28.25 0.34375-5.4291-0.65033-9.307-5.0446-11.844-11.031z" fill="url(#q)" fill-rule="evenodd"/>
  <path d="m444.81 516.74c9.52 4.5521 3.4667 25.544 10.212 33.66 11.747 25.905 90.876-3.958 57.016-20.109-14.91 0.23552-9.0358 16.307-19.017 10.112-5.6262-12.815 1.3566-25.71 20.98-22.478 27.451 12.794 36.936 24.461 14.66 60.215-56.825 44.432-89.556 12.121-137.34-13.841-9.4326-4.4453-32.26-2.4544-32.283-12.882-0.06276-27.756 60.736-46.651 85.777-34.678z" fill="url(#p)" fill-rule="evenodd"/>
  <path d="m442.39 369.72c9.9695-3.4584 20.428 15.723 30.931 16.75 26.569 10.157 61.826-66.721 26.395-54.392-10.435 10.653 5.0438 17.948-6.4093 20.563-13.012-5.1544-17.115-19.233-0.89088-30.735 28.514-10.208 41.212-3.0837 47.268 31.251 6.5956 51.55-49.647 72.846-101.88 87.995-9.8323 3.4728-24.661 20.941-32.011 13.544-19.564-19.69 10.374-75.879 36.597-84.975z" fill="url(#o)" fill-rule="evenodd"/>
  <path d="m469.28 426.95c9.9695-3.4584 20.428 15.723 30.931 16.75 26.569 10.157 61.826-66.721 26.395-54.392-10.435 10.653 5.0438 17.948-6.4093 20.563-13.012-5.1544-17.115-19.233-0.89088-30.735 28.514-10.208 43.462-8.5837 52.768 32.501-9.1544 71.55-55.147 71.596-107.38 86.745-9.8323 3.4728-24.661 20.941-32.011 13.544-19.564-19.69 10.374-75.879 36.597-84.975z" fill="url(#n)" fill-rule="evenodd"/>
  <path d="m348.51 376.14c-8.0574-3.9586-22.062 9.4578-31.687 8.8846-26.189 4.3729-38.948-59.422-10.322-45.324 6.7217 9.5605-8.8709 13.17 0.71622 16.671 12.869-2.2804 19.959-12.591 8.276-23.558-22.968-11.566-36.707-12.256-55.014 18.181-9.2436 56.301 31.8 62.309 74.737 80.761 7.9314 3.9519 16.917 19.333 25.278 14.59 22.256-12.625 9.2086-59.793-11.985-70.206z" fill="url(#m)" fill-rule="evenodd"/>
  <path d="m388.44 232.41c-3.3197 0.02696-6.5066 0.23917-9.4375 0.65625-26.365 3.7518-61.264 20.159-79.438 39.625-13.734 14.71-24.527 41.85-25.75 61.938-1.0688 17.548 18.571 39.085 15.75 56.438-2.5923 15.946-26.316 28.933-30.156 44.625-3.7975 15.518-0.12219 38.189 6.0938 52.906 4.087 9.6766 13.521 21.098 22.125 27.125 4.7438 3.3229 10.156 6.7432 15.938 10.062-4.8204 0.89166-8.975 2.8697-12 6.2188-6.4976 7.1937 10.47 20.078 14.188 29.031 16.683 47.726 19.03 90.436 85.906 95.344 37.671-10.7 38.438-24.669 27.531-50.625-11.491-14.484-24.368-9.962-28.5 2.375 3.0016 10.5 8.9941-4.2456 19.406 4.9062 13.222 32.271-59.908 3.3914-51.812-21.781 14.63-37.958 36.862-67.04 78.781-75.906 7.6476-12.757 6.4082-56.412 5.4062-62.156s30.487-26.279 38.438-41.188c11.52-21.603 23.632-55.53 18.5-79.469-7.1197-33.21-39.665-72.285-68.625-90.031-10.938-6.7028-27.958-10.211-42.344-10.094z" fill="#5a4f60" fill-rule="evenodd"/>
  <path d="m420.02 466.88a24.042 29.698 0 1 1 -48.083 0 24.042 29.698 0 1 1 48.083 0z" fill="#eeeeec" opacity=".58099"/>
  <path transform="matrix(.35294 0 0 1 257.64 0)" d="m420.02 466.88a24.042 29.698 0 1 1 -48.083 0 24.042 29.698 0 1 1 48.083 0z" fill="#5c3566"/>
  <path d="m394.23 441.53c-11.139 0-10.197-6.8154-20.197 24.945-0.1186 0.37669 0.0115 0.78991 0.02623 1.1804 3.2305-1.524 22.181-12.567 25.513-10.696l14.802 8.3092c-0.50909-13.202-9.3323-23.738-20.145-23.738z" fill="url(#l)" opacity=".58099"/>
  <path d="m273.87 415.76c-9.1609-0.35799-18.099 11.888-20.209 28.019-2.0437 15.622 3.0362 29.366 11.483 32.044-1.4133-8.9465-1.5663-18.908-0.2099-29.276 1.4984-11.453 4.6699-21.948 8.9361-30.787z" fill="#b0abb1"/>
  <path d="m233.57 488.08c-10.271 2.4212-8.825 24.221-17.143 30.714-16.992 22.811-87.951-23.213-51.429-31.786 14.518 3.4042 5.3572 17.857 16.429 13.929 8.2252-11.323 4.1475-25.409-15.714-26.429-29.545 6.6572-41.297 16.038-27.143 55.714 46.064 55.51 84.923 30.907 137.14 15.714 10.163-2.3355 32.043 4.4692 34.286-5.7143 5.97-27.107-49.413-58.511-76.429-52.143z" fill="#5a4f60" fill-rule="evenodd"/>
  <path d="m450.36 322.72c0.95319 6.9864 1.4688 14.193 1.4688 21.531 0 23.169-4.9488 44.842-13.562 63.344 4.4939 7.7667 7.7749 17.059 9.4062 27.281 21.624-8.1984 37.156-30.458 37.156-56.625 0-25.071-14.255-46.564-34.469-55.531z" fill="url(#k)"/>
  <path d="m382.5 408.38c-18.492 0-33.5 19.712-33.5 44 0 15.446 6.0749 29.023 15.25 36.875-2.0762-5.7241-3.25-12.116-3.25-18.875 0-24.288 15.008-44 33.5-44 6.7366 0 12.995 2.6247 18.25 7.125-5.3802-14.86-16.896-25.125-30.25-25.125z" fill="#2e3436"/>
  <path d="m388.85 239.14c-29.714 2.1552-58.215 15.833-80.438 35.25-16.618 17.051-26.554 41.219-26.969 65.062 2.8053 19.038 19.481 35.369 14.906 55.594-4.7715 19.241-28.325 27.744-30.638 47.966-2.2502 24.904 5.0948 52.534 26.044 67.909-4.856-19.267-6.1178-42.717 8.6562-58.062 7.4721-9.0481 19.748-17.264 19.906-30.125-1.592-19.959-19.626-36.863-15.188-57.812 4.3044-31.938 21.639-63.001 50.221-78.94 25.002-15.397 54.747-26.534 84.582-22.577 3.5572 0.31528 8.6317 1.7557 11.166 2.048-14.689-14.853-34.331-26.138-55.781-26.188-2.1532-0.15221-4.3112-0.20014-6.4688-0.125z" fill="url(#j)" fill-rule="evenodd"/>
  <path d="m165.41 477.62c-0.97308 0.02749-1.9549 0.16138-2.9062 0.4375-11.223 2.7407-26.072 7.0118-28.375 20.219-1.6984 11.12 1.6051 22.601 5.8438 32.688 4.0824 5.6075 3.8234 3.4055 1.8438-1.9375-3.7499-12.371-6.3014-28.811 4.5938-38.344 7.5159-6.7182 18.99-9.2704 27.625-11.281-2.7491-0.97623-5.7058-1.8637-8.625-1.7812zm10.219 19.562c-0.04482 0.01697-0.09388 0.05515-0.125 0.09375-0.49971 2.4036 2.1765 4.6026 3.4375 2.6875-0.53822-0.96113-2.6403-3.0359-3.3125-2.7812zm20.812 30.625c-0.05204 0.01124-0.02967 0.04298 0.21875 0.0625-0.04026-0.06448-0.16671-0.07374-0.21875-0.0625zm0.25 0.125c0.42557 0.139 0.87311 0.27638 1.3125 0.40625v-0.3125c-0.44339-0.02197-0.88197-0.06025-1.3125-0.09375z" fill="url(#i)" fill-rule="evenodd"/>
  <path d="m238.62 492.22c-4.535 0.21268-8.2851 3.0093-9.5312 7.5938-3.3804 9.3488-4.7164 20.434-13.469 26.562-4.7921 3.5696-11.447 3.9898-16.938 3.5625 9.0638 2.9605 21.486 4.04 27.719-4.875 6.7634-8.5606 4.6253-22.65 14.438-29.062 5.5154-2.4182 11.906-1.8855 17.781-1.25-5.846-1.6239-11.909-2.7047-18-2.4688-0.6742-0.07775-1.3522-0.09288-2-0.0625zm-40.188 37.594c-0.05204 0.01124-0.02967 0.04298 0.21875 0.0625-0.04026-0.06448-0.16671-0.07374-0.21875-0.0625z" fill="url(#h)" fill-rule="evenodd"/>
  <path d="m343.24 512.93c-14.792-3.1029-29.636 7.8889-33.127 24.53-0.62969 3.0018-0.842 5.9786-0.68896 8.868 4.1923-15.549 18.444-25.576 32.656-22.595 12.128 2.5442 18.142 4.9685 18.831 18.104 0.17284-0.63993 0.33614-1.2922 0.47419-1.9503 3.4908-16.641-3.3538-23.853-18.146-26.956z" fill="url(#g)" opacity=".62324"/>
  <path d="m382.54 544.66-24.042-15.556-21.213-4.2426 7.7782 50.205 13.435 31.82 3.5355 1.4142-8.4853-16.971 6.364-13.435 22.627-33.234z" fill="url(#f)" fill-rule="evenodd"/>
  <path d="m445.69 520.27c1.842 8.6155-0.16163 18.441 5.4062 25.844-2.5344-8.4204 0.57768-18.865-5.4375-25.938l0.03125 0.09375zm5.4062 25.844c0.02497 0.16001 0.05982 8.1e-4 0 0zm52.875-18.344c-5.1471 0.14573-8.5332 5.8041-9.4688 10.062-0.21485 2.6108 3.9645 4.405 4.5 1.125 1.5132-4.3795 5.543-8.2462 9.5312-9.3125-1.3798-0.77528-2.8162-2.3547-4.5625-1.875zm32.094 8.4062c2.616 14.091-5.4694 27.362-12.562 38.875-18.219 14.666-41.798 25.839-65.719 21.625 21.632 6.6714 44.779-0.62296 62.562-13.438 9.4574-4.877 13.383-15.491 17.219-24.812 2.706-6.9488 3.4094-16.737-1.5-22.25zm-167.81 21.875c4.2387 1.3192 10.694 2.1682 13.562 2.5625-4.2463-1.2893-10.168-2.0505-13.562-2.5625z" fill="#2e3436" fill-rule="evenodd"/>
  <path d="m525.34 387.03c-7.0159-0.71335-9.271 8.1278-6.25 13.281 1.4357 2.6704 0.06079 6.0308-1.9062 7.4062 1.6384 2.0946 6.0545 0.46161 4.0625-2.3438-3.5147-6.6752-0.63024-17.274 7.5938-18.062-1.1172-0.3427-2.3376-0.41916-3.5-0.28125zm37.469 6.2812c2.516 7.6311 5.7177 15.665 2.9688 23.75-3.5658 22.62-14.989 45.26-35.469 56.781-22.905 13.634-50.248 15.862-74.969 24.812-7.0056 4.327-14.528 10.638-21.281 13.594 6.8034 1.6962 12.269-4.8298 17.577-7.9075 11.105-9.6005 26.587-10.127 40.079-14.405 23.317-5.8472 49.319-13.503 63.156-34.938 8.3974-12.831 12.761-28.085 13.931-43.224-1.5761-6.6343-3.4054-13.185-6.2751-19.244l0.28125 0.78125z" fill="#2e3436" fill-rule="evenodd"/>
  <path d="m295.67 537.84c-0.21222-10.844-10.932-19.389-19.092-25.809-7.9402-6.2475-26.163 6.0104-26.163 6.0104l-12.374 36.77c24.281-9.987 38.787-11.093 57.629-16.971z" fill="url(#e)" fill-rule="evenodd"/>
 </g>
</svg>
