<?xml version="1.0" encoding="UTF-8"?>
<svg width="195.76mm" height="203.57mm" version="1.1" viewBox="0 0 693.65275 721.31613" xmlns="http://www.w3.org/2000/svg">
 <g transform="translate(1075.4 388.3)">
  <g transform="translate(-1101.5 -752.63)" stroke-width=".3">
   <path d="m284.52 368.01c0.07-1.39 0.71-3.69 2.48-3.46 1.8-0.48 2.63 1.9 2.57 3.32 0.33 19.54 0.11 39.1 0.78 58.64 7.81-2.33 15.78-4.15 23.72-6 1.4-0.65 3.32 1.09 2.17 2.5-1.07 1.32-2.88 1.43-4.45 1.45-1.61 0.06-3.21 0.27-4.77 0.66-12.01 3-24.06 5.86-36.08 8.82-4.93 1.3-10.1 1.94-14.66 4.37-1.34 0.52-2.74 0.66-4.2 0.41 0.26-1.1-0.23-2.85 1.27-3.16 10.09-2.65 20.26-5.03 30.38-7.61 0.3-19.98 0.45-39.96 0.79-59.94z" fill="#3d2714" stroke="#3d2714"/>
   <path d="m454.18 377.99c0.04-1.53 0.07-3.62 1.84-4.22 1.91-1 3.56 1.55 3.31 3.26 0.2 20.91 0.43 41.83 0.52 62.74 13.08-2.55 26.07-5.6 39.14-8.27 1.79-0.27 3.78-0.8 5.52 0.06 1.02 2.57-2.79 3.2-4.5 3.58-2.74 0.14-5.51 0.07-8.18 0.71-27.5 6.36-55.14 12.11-82.61 18.6-1.64 0.43-6.75 1.39-5.59-1.63 2.06-1.67 4.81-1.84 7.29-2.43 14.16-3.01 28.31-6.04 42.44-9.14 0.28-21.09 0.38-42.18 0.82-63.26z" fill="#3d2814" stroke="#3d2814"/>
   <path d="m270.94 433.94c12.02-2.96 24.07-5.82 36.08-8.82 1.56-0.39 3.16-0.6 4.77-0.66-1.41 12.47-2.28 25.11-1.14 37.64 2.51 11.69 7.65 22.61 11.43 33.91-13.76-5.09-28.33-9.26-43.16-8.04-4.17 0.21-8.13 1.6-12.01 3.02-3.72 1.4-8.43 1.39-11.32-1.69-6.37-5.2-6.48-14.66-12.74-19.87 2.75-7.42 6.72-14.33 9.98-21.54 1.26-3.11 4.12-6.02 3.45-9.58 4.56-2.43 9.73-3.07 14.66-4.37z" fill="#e1c8ad" stroke="#e1c8ad"/>
   <path d="m491.83 435.85c2.67-0.64 5.44-0.57 8.18-0.71-1.02 0.38-2.04 0.77-3.05 1.14-1.14 17.22-1.27 34.55 0.03 51.77-2.09-2.42-4.85-4.15-7.82-5.27-13.68-5.63-28.64-6.54-43.21-7.67-9.48-0.29-18.94 0.69-28.37 1.43-11.83 2.12-25.05 4.25-33.49 13.67 0.57-4.19 2.75-7.88 4.64-11.58 4.25-7.98 10.15-15.05 17.13-20.78 1.25-1 2.36-2.15 3.35-3.4 27.47-6.49 55.11-12.24 82.61-18.6z" fill="#e2c8ad" stroke="#e2c8ad"/>
   <path d="m229.78 497.97c4.14-9.61 8.03-19.36 13.07-28.54 6.26 5.21 6.37 14.67 12.74 19.87 2.89 3.08 7.6 3.09 11.32 1.69 3.88-1.42 7.84-2.81 12.01-3.02 14.83-1.22 29.4 2.95 43.16 8.04 3.89 9.35 7.87 18.66 11.75 28.01-13.81-6.75-27.58-14.52-42.99-16.91-2.68-0.41-5.39-0.29-8.04 0.18-13.61 3.18-27.07 7.97-38.77 15.74-7.22 4.29-6.75 13.73-7.5 21.02-2.23-2.96-3.32-6.54-4.7-9.94-2.5-6.82-5.09-13.75-5.74-21.04-0.6-5.33 1.85-10.27 3.69-15.1z" fill="#c2ac95" stroke="#c2ac95"/>
   <path d="m572.25 475.97c0.04-1.64-0.07-3.67 1.83-4.34 1.66 0.27 2.47 1.75 2.24 3.35 0.17 19.48 0.37 38.97 0.53 58.45 5.78-0.61 11.44-2.59 17.3-2.23-0.79 3.28-5.02 2.28-7.4901 2.96-14.91 2.1201-29.77 4.63-44.57 7.36-1.02 2.45-3.6801 3.06-6.05 3.42-48.99 7.67-97.97 15.39-146.95 23.16-4.77 0.6801-9.54 1.91-14.39 1.44-0.51-0.13-1.53-0.39-2.03-0.52 1.78-3.86 6.91-3.22 10.4-4.11 23.03-3.61 46.05-7.25 69.06-10.97 0.08-10.71 0.17-21.42 0.3-32.14 2.74 0.01 5.48 0.05 8.22 0.21 0.13 10.17 0.18 20.34 0.27 30.52 36.91-5.73 73.82-11.52 110.59-18.11 0.29-19.49 0.46-38.97 0.74-58.45z" fill="#3d2814" stroke="#3d2814"/>
   <path d="m417.59 476.54c9.43-0.74 18.89-1.72 28.37-1.43 14.57 1.13 29.53 2.04 43.21 7.67 2.97 1.12 5.73 2.85 7.82 5.27 3.86 18.95 17.35 33.55 28.07 48.94-4.15-0.76-7.79-2.98-11.69-4.47-16.72-6.82-34.79-9.52-52.72-10.51-2.74-0.16-5.48-0.2-8.22-0.21-12.08 0.28-24.41 0.3-36.12 3.68-10.29 3.11-19.12 9.7-26.93 16.9-2.66 5.36 0.31 11.46-0.85 17.09-0.61 0.0601-1.83 0.19-2.44 0.26-0.55-4.88-0.86-9.82-2.42-14.5-5.1-16.66-5.75-34.75-1.05-51.57 0.38-1.2 0.69-2.46 1.48-3.45 8.44-9.42 21.66-11.55 33.49-13.67z" fill="#d6bca3" stroke="#d6bca3"/>
   <path d="m282.8 507.29c2.65-0.47 5.36-0.59 8.04-0.18 0.12 9.94 0.37 19.89 0.37 29.84 17.93-3.8 35.79-7.88 53.74-11.59 1.87-0.27 4.56-0.72 5.47 1.47 0.28 2-1.82 3.18-3.46 3.62-4.33 1.01-8.68 1.9-13.02 2.85-25.46 5.29-50.85 10.9-76.31 16.2-8.87 2.07-17.91 3.46-26.66 5.99-2.28 0.78-5.14 0.68-6.69-1.41 1-1.8 2.6-3.16 4.68-3.5 17.85-3.92 35.76-7.65 53.56-11.79-0.01-10.5 0.24-21 0.28-31.5z" fill="#402812" stroke="#402812"/>
   <path d="m257.63 549.5c25.46-5.3 50.85-10.91 76.31-16.2 0.09 0.91 0.27 2.72 0.36 3.62-2.49 23.98-4.33 48.02-5.84 72.07-0.26 9.59-1.09 19.18-0.3 28.77-1.99-0.61-4.08-1.61-6.17-0.8-7.94 2.35-15.17 6.62-23.12 8.96-12.33 4.3-26.29 4.85-38.51-0.12-15.04-5.7-26.17-18.14-34.87-31.23-2.32-3.59-4.73-7.22-7.91-10.11-1.96-1.26-4.01 0.35-5.69 1.33 0.72-4.77 2.83-9.13 4.41-13.64 2.91-8.19 6.31-16.18 9.57-24.23 1.65-4.17 3.9-8.09 5.1-12.43 8.75-2.53 17.79-3.92 26.66-5.99z" fill="#e2c8ad" stroke="#e2c8ad"/>
   <path d="m542.09 541.52c14.8-2.73 29.66-5.24 44.57-7.36-0.64 12.82 0.6801 25.73 2.54 38.42-8.04-1.28-16.21-0.62-24.22 0.51-11.99 1.67-24 4-35.34 8.3199-1.77 0.75-4.16 1.3701-4.44 3.64-1.97 7.45-3.5 15.03-4.58 22.67-0.94 4.77-1.9 9.5601-2.09 14.44 0.9 0.09 2.68 0.28 3.58 0.3701-1.35 0.17-2.69 0.4-4.01 0.6299-0.11 0.8701-0.33 2.6201-0.43 3.5 28.45-2.21 56.87-4.78 85.32-7.1 6.36-0.36 12.74-1.69 19.09-0.47-1 0.36-1.99 0.72-2.98 1.09-0.5 10.94-1.4 21.86-2.81 32.72-1.2 7.99-0.65 16.08-0.54 24.12 0.71 13.38 1.66 26.78 3.62 40.05 0.52 3.67 1.69 7.26 1.66 11.01-18.59-9.14-38.72-14.53-58.77-19.43-10.46-2.13-20.89-4.76-31.54-5.69-6.6899-15.35-10.88-31.74-13.25-48.29-0.54-2.41-0.92-5.6-3.56-6.62-4.09-1.56-8.59-1.19-12.85-0.74-19.67 2.81-39.1 8.14-59.1 7.9-8.09 0.13-16.2-0.92-23.98-3.16-15.16-4.87-27.83-15.06-39.33-25.75-6.39-5.24-11.4-12.01-18.27-16.67-1.4-0.65-2.94-0.86-4.4-1.22 5.74-13.19 12.05-26.13 18.72-38.87 4.85 0.47 9.62-0.7599 14.39-1.44 48.98-7.77 97.96-15.49 146.95-23.16 2.3701-0.3599 5.0301-0.9699 6.0501-3.4199z" fill="#e2c8ad" stroke="#e2c8ad"/>
   <path d="m564.98 573.09c8.01-1.13 16.18-1.79 24.22-0.51 7.25 13.14 16.13 25.3 24.92 37.43-12.15 2.79-24.53 0.35-36.55-1.84-2.22-0.35-4.44-0.61-6.65-0.84-0.09 3.59-0.26 7.18-0.39 10.78 0.02-3.64-0.13-7.28-0.35-10.9-6.73-0.5-13.72-0.65-20.12 1.82-8.02 2.73-15.05 7.52-22.23 11.88-2.74-4.21-4.97-8.71-7.21-13.19 1.08-7.64 2.61-15.22 4.58-22.67 0.28-2.27 2.67-2.89 4.44-3.64 11.34-4.3199 23.35-6.6499 35.34-8.3199z" fill="#c5af97" stroke="#c5af97"/>
   <path d="m211.89 605.79c1.68-0.98 3.73-2.59 5.69-1.33 3.18 2.89 5.59 6.52 7.91 10.11 8.7 13.09 19.83 25.53 34.87 31.23 12.22 4.97 26.18 4.42 38.51 0.12 7.95-2.34 15.18-6.61 23.12-8.96 2.09-0.81 4.18 0.19 6.17 0.8 1.66 7.91 3.83 15.73 6.37 23.41 1.65-2.23 2.16-5.01 3.14-7.54 5.43-15.33 11.67-30.37 18.31-45.22 1.46 0.36 3 0.57 4.4 1.22 6.87 4.66 11.88 11.43 18.27 16.67 11.5 10.69 24.17 20.88 39.33 25.75 7.78 2.24 15.89 3.29 23.98 3.16 20 0.24 39.43-5.09 59.1-7.9 4.26-0.45 8.76-0.82 12.85 0.74 2.64 1.02 3.02 4.21 3.56 6.62 2.3701 16.55 6.5601 32.94 13.25 48.29 3.6801 8.5099 8.6 16.55 15.08 23.22 3.36 3.36 7.83 5.23 12.27 6.71 1.64 0.43 2.87 1.62 4.05 2.79-6.97 2.96-14.7 2.48-22.07 2.05-13.53-1.61-26.8-4.87-40.18-7.36-7.13-1.03-14.21-2.45-21.36-3.31-5.34-0.62-10.64-1.47-15.96-2.23-4.1-0.62-8.21-1.15-12.34-1.46-11.41-0.97-23.22-1.94-34.29 1.66-13.33 4.02-26.82 7.83-39.5 13.64-1.94-1.05-4.14-1.46-6.32-1.22-9.26 0.71-18.5 1.59-27.75 2.37-4.68-10.16-8.19-20.81-10.46-31.76-12.87-3.6-26.02-6.14-39.2-8.34-3.9-0.68-7.84-1.14-11.8-1.36-0.07 2.96-0.18 5.92-0.29 8.89-0.49-2.91 0.38-6.2-0.78-8.87-8.64-0.79-17.61-0.6-25.82 2.48-11.54 4.05-23.61 8.81-31.85 18.24-2.41 2.4301-2.96 5.85-4.05 8.94-2.24 1.59-5.16 0.26-7.35-0.7599-7.51-4.1801-14.45-11.24-15.03-20.25-1.97-24.55 1.12-49.28 7.03-73.11 2.69-9.4801 5.19-19.09 9.14-28.13z" fill="#c7b29a" stroke="#c7b29a"/>
   <path d="m570.92 607.33c2.21 0.23 4.43 0.49 6.65 0.84-0.01 3.17 0.03 6.33 0.05 9.5 15.45-1.2 30.88-2.72 46.35-3.84 1.73-0.07 5.63 0.63 4.3101 3.22-1.65 1.57-4.04 1.87-6.2 2.04-6.35-1.22-12.73 0.11-19.09 0.47-28.45 2.32-56.87 4.89-85.32 7.1 0.1-0.8799 0.32-2.6299 0.43-3.5 1.32-0.23 2.66-0.46 4.01-0.6299 16.14-1.41 32.28-2.78 48.42-4.1801v-0.24c0.1299-3.6 0.2999-7.19 0.3899-10.78z" fill="#3d2814" stroke="#3d2814"/>
   <path d="m57.91 674.05c-1.03-1.24-0.69-3.56 1.17-3.65 1.41-0.61 1.9 1.2 2.59 2 4.65 7.55 9.25 15.13 13.93 22.66-1.73 0.26-3.48 0.45-5.21 0.72-4.32-7.14-8.32-14.49-12.48-21.73z" fill="#3b2915" stroke="#3b2915"/>
   <path d="m75.6 695.06c10.49-1.81 20.95-3.88 31.49-5.4 2.38-0.5 2.75 3.5 0.72 4.1801-2.75 0.9-5.69 1.06-8.52 1.64-14.72 2.35-29.37 5.23-44.11 7.42-0.49-0.04-1.46-0.13-1.94-0.17-0.02-1.4-0.39-3.79 1.54-4.03 5.19-1.04 10.45-1.69 15.61-2.92 1.73-0.2701 3.48-0.4601 5.21-0.7201z" fill="#462b14" stroke="#462b14"/>
   <path d="m55.18 702.9c14.74-2.19 29.39-5.07 44.11-7.42-1.57 10.73-3.34 21.45-3.67 32.31 0.07 4.75-1.38 9.96 1.13 14.32-1.87 3-1 6.62-0.85 9.93 1.76 19.03 4.55 39.01 16.09 54.9-11.31-2.33-22.97-2.57-34.12-5.73-9.01-2.25-17.45-6.52-24.68-12.34-6.7-4.93-12.36-11.23-19.48-15.55-1.9-1.5-4.15-0.35-6.12 0.26 3.54-25.33 15.01-48.7 27.59-70.68z" fill="#e2c8ad" stroke="#e2c8ad"/>
   <path d="m280.89 698.36c3.96 0.22 7.9 0.68 11.8 1.36 0.01 14.82 0.21 29.64 0.47 44.46 16.4-1.48 32.8-2.91 49.19-4.36 9.25-0.78 18.49-1.66 27.75-2.37 2.18-0.24 4.38 0.17 6.32 1.22 0.31 0.63 0.92 1.9 1.22 2.53-2.61 4.56-8.43 3.72-12.87 4.25-2.21 0.15-4.4 0.37-6.59 0.65-7.13 0.56-14.28 0.88-21.37 1.81-44.02 3.6801-88.02 7.6801-132.02 11.48-3.01 0.3-6.3 0.52-8.99-1.11-1.16-1.08-1.13-3.39 0.39-4.13 2.51-1.94 5.82-1.85 8.81-2.1801 24.97-2.03 49.89-4.5 74.86-6.5 0.88-12.7 0.35-25.49 0.74-38.22 0.11-2.9699 0.22-5.9299 0.29-8.8899z" fill="#402711" stroke="#402711"/>
   <path d="m530.72 702.96c10.65 0.93 21.08 3.56 31.54 5.69 20.05 4.9 40.18 10.29 58.77 19.43l0.47 0.22c6.29 12.27 13.25 24.69 23.53 34.1-11.57 1.72-23.32 0.87-34.97 1.31-9.88-0.41-19.86 1.52-29.66 0.12-3.2-1.24-6.61-1.44-9.97-1.83-2.11 0.59-4.31 0.79-6.49 0.81-0.16-0.97-0.32-1.93-0.49-2.89 3.27 0.53 8.21-1.05 8.14-5-1.14-3.53-5.5-3.49-8.54-3.34-26.08 1.73-52.15 3.58-78.21 5.53 0.67-0.22 2-0.65 2.67-0.87-4.3-9.25-8.62-18.81-9-29.18 7.15 0.86 14.23 2.28 21.36 3.31 13.38 2.49 26.65 5.75 40.18 7.36 7.37 0.43 15.1 0.91 22.07-2.05-1.18-1.17-2.41-2.36-4.05-2.79-4.44-1.48-8.91-3.35-12.27-6.71-6.48-6.67-11.4-14.71-15.08-23.22z" fill="#bea891" stroke="#bea891"/>
   <path d="m450.21 723.37c4.13 0.31 8.24 0.84 12.34 1.46 0.06 11.26 0.2 22.53 0.29 33.8 7.33-0.44 14.66-1.1 22-1.52 26.06-1.95 52.13-3.8 78.21-5.53 3.04-0.15 7.4-0.19 8.54 3.34 0.0699 3.95-4.8701 5.53-8.14 5-0.97-0.89-2.09-1.28-3.36-1.17-58.73 3.93-117.46 7.99-176.19 11.94-4.91 0.35-9.99 0.26-14.59 2.27-1.51-0.96-3-2.11-3.23-4.01l0.28-0.41c1.85-2.36 4.75-3.39 7.65-3.58 25.25-1.7 50.5-3.53 75.74-5.36 0.07-12.08 0.43-24.15 0.46-36.23z" fill="#3f2711" stroke="#3f2711"/>
   <path d="m96.75 742.11c-2.51-4.36-1.06-9.57-1.13-14.32 22.96 37.29 45.79 74.66 68.75 111.95-2.84 0.15-5.43-1.16-8.05-2.05-2.4-0.97-5.11-1.6-6.95-3.55-17.48-30.72-35.08-61.36-52.62-92.03z" fill="#3e2712" stroke="#3e2712"/>
   <path d="m336.81 747.91c7.09-0.93 14.24-1.25 21.37-1.81-2.79 1.31-5.66 4.67-8.91 2.67-3.95-1.72-8.31-0.62-12.46-0.86z" fill="#ccb49c" stroke="#ccb49c"/>
   <path d="m358.18 746.1c2.19-0.28 4.38-0.5 6.59-0.65 1.14 6.87 2.91 13.79 1.67 20.79-0.49-3.08 1.07-7.25-1.3-9.59-4.94 4.19-7.54 11.4-14.21 13.26-8.93 2.91-17.71 6.27-26.56 9.42-6 2.51-12.35 4.5-17.71 8.28-5.54 4.66-7.94 11.9-13 16.99-5.16 4.76-12.23 7.67-19.31 6.97-8.85-0.73-18.57-2.21-25.21-8.68-5.63-5.93-4.88-14.7-6.46-22.16-2.77 2.95-0.9 7.57-3.03 10.79-5.3 2.57-11.67 1.17-16.62-1.56-4.86-2.82-9.15-6.5-13.9-9.4901-2.32-6.55-1.37-13.86-0.82-20.68-0.88-0.1-2.64-0.3-3.52-0.4 44-3.8 88-7.8 132.02-11.48 4.15 0.2401 8.51-0.86 12.46 0.86 3.25 2.0002 6.12-1.3598 8.91-2.6698m-109.65 10.35c-1.46 5.75-2.86 11.53-3.99 17.36-1.6 7.89 3.43 17.41 11.76 18.8 2.13 0.59 4.47 0.26 6.31-0.96 7.69-5.19 14.29-11.75 21.08-18.01 3.18-3.25 6.82-6.4 8.34-10.82-2.21-0.14-3.82 1.46-5.1 3.04-4.92 6.07-10.56 11.61-17.09 15.94-3.18 2.16-6.78 4.58-10.81 4.05-2.35-0.24-3.33-2.61-4.63-4.21-1.7-2.6-4.43-4.69-4.97-7.89-0.79-6.06 0.14-12.15 0.5-18.2-0.35 0.23-1.05 0.68-1.4 0.9z" fill="#e2c8ad" stroke="#e2c8ad"/>
   <path d="m248.53 756.45c0.35-0.22 1.05-0.67 1.4-0.9-0.36 6.05-1.29 12.14-0.5 18.2 0.54 3.2 3.27 5.29 4.97 7.89 1.3 1.6 2.28 3.97 4.63 4.21 4.03 0.53 7.63-1.89 10.81-4.05 6.53-4.33 12.17-9.87 17.09-15.94 1.28-1.58 2.89-3.18 5.1-3.04-1.52 4.42-5.16 7.57-8.34 10.82-6.79 6.26-13.39 12.82-21.08 18.01-1.84 1.22-4.18 1.55-6.31 0.96-8.33-1.39-13.36-10.91-11.76-18.8 1.13-5.83 2.53-11.61 3.99-17.36z" fill="#bda68e" stroke="#bda68e"/>
   <path d="m350.93 769.91c6.67-1.86 9.27-9.0699 14.21-13.26 2.37 2.34 0.81 6.5099 1.3 9.59-0.02 0.57-0.06 1.72-0.08 2.3l-0.28 0.41c-1.91 3.03-4.24 5.9-7.45 7.63-12.89 7.38-27.34 11.55-40.2 18.96-6.17 3.37-8.68 10.27-11.69 16.18-3.04 6.34-6.88 12.59-12.85 16.57-4.56 2.11-9.7 2.64-14.62 1.72-13.92-2.1-25.56-11.86-32.79-23.57-2.05-3.24-4.04-7.69-8.55-7.64-5.83 0.04-11.95 2.13-17.6-0.22-7.09-2.91-10.58-10.91-11.2-18.11 4.75 2.9901 9.04 6.67 13.9 9.4901 4.95 2.73 11.32 4.13 16.62 1.56 2.13-3.22 0.26-7.84 3.03-10.79 1.58 7.46 0.83 16.23 6.46 22.16 6.64 6.47 16.36 7.95 25.21 8.68 7.08 0.7 14.15-2.21 19.31-6.97 5.06-5.09 7.46-12.33 13-16.99 5.36-3.78 11.71-5.77 17.71-8.28 8.85-3.1502 17.63-6.5102 26.56-9.4202z" fill="#c1ab94" stroke="#c1ab94"/>
   <path d="m383.9 770.69c58.73-3.95 117.46-8.01 176.19-11.94 1.27-0.11 2.39 0.28 3.36 1.17 0.17 0.96 0.33 1.92 0.49 2.89-1.45 0.11-2.99 0.08-4.28 0.83-6.52 3.73-11.17 10.6-18.73 12.49-15.31 4.06-30.66 8.04-45.62 13.26-4.54 1.6-9.43 2.65-13.34 5.62-6.15 4.52-9.24 12.05-15.61 16.34-6.64 5.03-15.14 6.96-23.36 6.65-11.77-0.36-24.02-2.25-33.97-8.97l-0.51 1.1c-0.3-0.59-0.6-1.16-0.89-1.73-1.08-2.58-2.37-5.06-3.29-7.69-1.38-4.57-1.38-9.42-2.82-13.96-2.43 3.03-1.65 7.21-3.17 10.61-1.88 1.9-4.9 1.63-7.35 1.96-10.37 0.76-19.88-4.18-29.01-8.37-1.69-0.74-3.53-1.03-5.31-1.38-1.21-8.16 6.76-12.87 12.63-16.61 4.6-2.01 9.68-1.92 14.59-2.27z" fill="#e2c8ad" stroke="#e2c8ad"/>
   <path d="m570.43 762c3.36 0.39 6.77 0.59 9.97 1.83-5.4301 1.42-11.16-0.23-16.59 0.92-1.1 4.58-2.83 8.94-4.54 13.31 0.13 0.39 0.4 1.16 0.53 1.55-2.86 0.56-4.02 3.55-5.66 5.6 2.05 0.04 4.11 0.11 6.18 0.07-3.14 0.28-6.38 0.4399-9.33 1.65-17.5 8.19-36.34 12.86-54.37 19.65-2.16 0.67-3.83 2.23-4.76 4.27-6.05 11.28-16.06 20.63-28.29 24.76-4.76 1.52-9.73 2.24-14.69 2.6-9.71 0.24-19.89-2.25-27.23-8.89-5.96-5.18-9.31-12.46-13.13-19.19l0.51-1.1c9.95 6.72 22.2 8.61 33.97 8.97 8.22 0.31 16.72-1.62 23.36-6.65 6.37-4.29 9.46-11.82 15.61-16.34 3.91-2.97 8.8-4.02 13.34-5.62 14.96-5.22 30.31-9.2 45.62-13.26 7.56-1.89 12.21-8.76 18.73-12.49 1.29-0.75 2.83-0.72 4.28-0.83 2.18-0.02 4.38-0.22 6.49-0.81z" fill="#c1ab94" stroke="#c1ab94"/>
   <path d="m568.84 764.64c3.43-0.08 6.86-0.08 10.29-0.07-0.07 4.63 0.07 9.26 0.02 13.9 27.31-1.21 54.6-2.86 81.91-4.03 2.63-0.01 5.75-0.3 7.77 1.77 0.68 3.18-3.62 3.56-5.79 3.93-27.93 1.39-55.87 2.75-83.81 4.17 0.23 36.17 0.67 72.34 0.92 108.51 0.79 0.04 2.38 0.1 3.18 0.13-0.84 0.49-1.67 0.99-2.48 1.52-4.24-2.48-9.4-0.56-13.17 1.92-0.05-37.21 0.84-74.42 0.98-111.64-2.78 0.22-5.56 0.42-8.34 0.53-2.07 0.04-4.13-0.03-6.18-0.07 1.64-2.05 2.8-5.04 5.66-5.6 2.97-0.32 5.95-0.35 8.93-0.5 0.09-4.83 0.12-9.65 0.11-14.47z" fill="#3e2712" stroke="#3e2712"/>
   <path d="m27.59 773.58c1.97-0.61 4.22-1.76 6.12-0.26 7.12 4.32 12.78 10.62 19.48 15.55 7.23 5.82 15.67 10.09 24.68 12.34 11.15 3.16 22.81 3.4 34.12 5.73 6.25 8.41 14.22 15.48 23.21 20.84 4.49 2.58 8.95 5.5699 14.17 6.36 1.84 1.95 4.55 2.58 6.95 3.55 2.62 0.89 5.21 2.2 8.05 2.05 6.02 3.51 13.8 5.81 16.79 12.8-34.65 1.52-69.31 2.78-103.95 4.44-0.65-2.29-3.37-2.12-5.21-2.83-6.26-2.01-13.34-2.33-18.61-6.66-10.26-8.1-17.4-19.64-21.9-31.8-5.06-13.33-6.55-28.08-3.9-42.11z" fill="#cdb59d" stroke="#cdb59d"/>
   <path d="m398.35 797.36c1.52-3.4 0.74-7.58 3.17-10.61 1.44 4.54 1.44 9.39 2.82 13.96 0.92 2.63 2.21 5.11 3.29 7.69-2.36-1.22-4.99-1.91-7.64-1.59-10.19 0.71-20.77 3.15-30.75-0.13-4.88-1.48-3.51-7.99-7.12-10.7-2.15-1.83-4.99-3.32-5.44-6.41 1.78 0.35 3.62 0.64 5.31 1.38 9.13 4.19 18.64 9.13 29.01 8.37 2.45-0.33 5.47-0.06 7.35-1.96z" fill="#c0ab94" stroke="#c0ab94"/>
   <path d="m279.27 830.01c4.92 0.92 10.06 0.39 14.62-1.72 0.25 29.11 0.54 58.22 0.77 87.33 32.76 0.7 65.54 0.75 98.29 1.63 6.2 0.12 10.28 5.41 14.69 9.03 1.18 1.11 2.9 0.79 4.38 0.95 8.94 0.2 17.88 0.47 26.83 0.65 3.41-0.01 6.46 1.64 9.05 3.74 0.62-31.13 0.65-62.28 0.98-93.41 4.96-0.36 9.93-1.08 14.69-2.6 0.19 32.63 0.63 65.25 0.91 97.88 7.16-0.01 14.33 0.27 21.49 0.05 4.84-0.38 6.84-6.95 11.97-6.34 11.18-0.04 22.34 0.7 33.51 1.08 3.79 1.35 7.63-0.52 11.48-0.04 5.86 0.53 12.28 0.44 17.38-2.88 6.17-3.74 11.53-8.83 18.19-11.75 12.17-3.32 24.43-6.3 36.65-9.45 3.21-0.72 6.73-0.52 9.36-2.84 3.1 0.43 6.03-0.97 8.94-1.78 4.57-1.4 8.99-3.29 12.81-6.2 6.37-3.2401 13.74-3.7401 20.75-4.44 10.97-0.6801 20.37 6.3199 30.99 7.69 3.42 0.27 3.71 5.0099 7.06 5.58 4.96 1.21 10.69 2.4 13.76 6.94 1.31 1.54-0.76 3.01-1.51 4.23-0.33 14.89-0.77 29.78-0.46 44.67-0.1 2.35 3.09 3.4 2.78 5.87 0.03 5.05 0.13 10.19-0.88 15.17-0.43 3.69-5.19 3.17-7.83 4.19l-0.62-0.22c-0.34-0.11-1.03-0.35-1.37-0.47-9.62-0.93-19.28-0.38-28.92-0.52-21.67-0.03-43.34-0.09-65-0.1-7.36 0.1-14.66-1.13-22.01-0.9-14.66-0.09-29.32 0.04-43.98-0.07-8.34 0.04-16.71 0.32-24.99-0.85-8.67-0.17-17.34 0.02-26.01-0.12-10.35-0.15-20.76 0.61-31.03-0.9-18-0.06-36.02-0.1201-54.02-0.11-18.57-2.2-37.34-0.02-55.97-1.51-10.95-1.06-21.96-0.14-32.93-0.61-11.26-1.76-22.7-0.31-34.02-1.11-10.36-1.68-20.91 0.1-31.28-1.4-8.5-1-17.1 0.37-25.59-0.73-2.91-0.46-5.83 0.12-8.74-0.06-11.71-1.7-23.78-0.78-35.26-4.05-0.46 0.37-1.38 1.09-1.84 1.46-4.62-7.22-9.23-14.47-13.25-22.03-3.15-5.4-4.92-11.64-4.38-17.91 0.56-8.04 3.97-16.89 11.51-20.76 3.97-0.23 7.93 0.32 11.9 0.36-4.55-8.57-9.62-16.85-14.37-25.3 3.52-1.72 6.93-3.68 10.1-5.98 6.21 10.87 13.01 21.4 19.52 32.09 23.38 1.02 46.74 2.31 70.12 3.36 0.12-28.26 0.47-56.53 0.78-84.79m-92.26 87.94c-4.98 1.69-6.78 7.36-7.18 12.12-0.46 8.15 2.19 16.17 5.82 23.37 2.11 3.77 4.33 8.08 8.63 9.69-0.7-3.7-3.16-6.67-4.55-10.09-3.17-7.21-5.52-15.46-3.09-23.24 1.19-4.17 4.44-7.39 5.36-11.65-1.61-0.54-3.37-1.05-4.99-0.2m434.19 3.44c-8.67 5.61-5.36 21.78 4.73 23.83 2.98 0.41 5.87-1.45 7.29-4 2.45-4.35 2.03-9.8799-0.12-14.25-2.04-4.25-7.15-8.01-11.9-5.58m25.16 0.09c-6.1 3.9-5.85 12.94-2.35 18.55 2.27 3.99 7.85 7.04 12.02 3.92 5.3199-4.19 5.1-12.46 1.8199-17.86-2.1399-3.9-7.1499-7.05-11.49-4.61m-307.99 19.04c-5.72 1.58-8.6 7.97-8.75 13.49-0.25 5.64 1.98 12.27 7.47 14.75 3.47 1.7 7.69 0.17 10.05-2.66 4.46-5.22 4.9-13.14 2.12-19.25-1.81-4.06-6.23-7.61-10.89-6.33m39.72 3.69c-3.39 0.72-5.86 3.56-7.26 6.6-2.78 6.11-2.13 13.93 2.3 19.11 2.72 3.27 7.92 4.44 11.46 1.77 6.49-4.76 7.55-14.5 4.11-21.4-1.83-3.94-6.08-7.19-10.61-6.08m31.06-0.04c-6.07 3.26-8.19 11.19-6.82 17.59 0.91 5.85 6.09 12.29 12.63 10.5 7.91-2.95 9.95-13.32 7.39-20.58-1.57-5.35-7.53-10.36-13.2-7.51m35.19 2.24c-9.41 4.61-10.23 19.3-2.94 26.17 3.19 3.25 8.91 3.12 12.02-0.16 5.72-5.79 6.04-15.76 1.46-22.32-2.23-3.33-6.69-5.31-10.54-3.69m32.03 0.03c-9.52 4.82-10.07 19.82-2.39 26.58 3.46 3.03 8.95 2.41 11.99-0.92 4.68-5.19 5.36-13.25 2.54-19.5-1.93-4.54-7.14-8.36-12.14-6.16m111.98 4c-6.81 4.26-7.42 14.75-2.7 20.8 2.31 3.2 7.25 4.32 10.41 1.7 5.66-4.48 6.21-13.51 2.41-19.34-2-3.32-6.6-5.34-10.12-3.16m26.72-0.23c-8.98 4.69-8.31 21.45 1.92 24.15 7.31 0.59 11.02-8.17 10.04-14.34-0.3-5.71-5.71-12.66-11.96-9.81m24.3 1.14c-6.95 3.42-8.13 13.36-4.5 19.62 1.9 3.76 6.94 6.19 10.75 3.67 5.82-3.81 6.84-12.34 3.98-18.3-1.64-3.78-6.12-6.88-10.23-4.99z" fill="#402711" stroke="#402711"/>
   <path d="m77.21 856.98c34.64-1.66 69.3-2.92 103.95-4.44 5.12 0.01 10.28-0.74 15.37-0.1 2.31 0.41 2.71 3.81 0.47 4.64-3.57 1.47-7.64 0.74-11.42 1.05-36.89 1.44-73.77 3.19-110.67 4.24-1.29-0.53-2.92-1.37-2.61-3.04 0.77-1.91 3.1-2.33 4.91-2.35z" fill="#422811" stroke="#422811"/>
   <path d="m74.91 862.37c36.9-1.05 73.78-2.8 110.67-4.24-0.92 1.87 0.13 3.78 0.74 5.58 1.72 5.0099 4.63 10.25 2.53 15.64-3.17 2.3-6.58 4.26-10.1 5.98-9.57 2.48-18.88 6.04-27.49 10.94-7.49 4.26-15.35 7.95-23.67 10.25-3.6 0.88-8.04 0.47-10.35-2.8-3.43-4.79-4.79-11.5-10.49-14.32-4.07-1.23-7.11 2.62-10.76 3.63-2.65 1.21-6.2-0.07-6.86-3.05-1.78-6.48 0.13-13.28-0.75-19.86-0.46-2.77-1.84-5.24-3.22-7.64-3.41 0.1299-6.84 0.3099-10.25-0.1101z" fill="#cdb59d" stroke="#cdb59d"/>
   <path d="m567.68 896.39c3.77-2.48 8.93-4.4 13.17-1.92 0.81-0.53 1.64-1.03 2.48-1.52 14.19-1.1 28.58 1.69 41.18 8.37-2.63 2.32-6.15 2.12-9.36 2.84-12.22 3.15-24.48 6.13-36.65 9.45-6.66 2.92-12.02 8.01-18.19 11.75-5.1 3.32-11.52 3.41-17.38 2.88-3.85-0.48-7.69 1.39-11.48 0.04 9.93-3.71 14.94-13.51 22.49-20.22 4.31-4.2 8.98-8 13.74-11.67z" fill="#36210e" stroke="#36210e"/>
   <path d="m187.01 917.95c1.62-0.85 3.38-0.34 4.99 0.2-0.92 4.2599-4.17 7.48-5.36 11.65-2.43 7.78-0.08 16.03 3.09 23.24 1.39 3.42 3.85 6.39 4.55 10.09-4.3-1.61-6.52-5.92-8.63-9.69-3.63-7.2-6.28-15.22-5.82-23.37 0.4-4.76 2.2-10.43 7.18-12.12z" fill="#774f2a" stroke="#774f2a"/>
   <path d="m621.2 921.39c4.75-2.43 9.86 1.33 11.9 5.58 2.15 4.3701 2.57 9.9 0.12 14.25-1.42 2.55-4.31 4.41-7.29 4-10.09-2.05-13.4-18.22-4.73-23.83m1.07 4.81c-2.47 3.03-1.95 7.51-0.36 10.84 1.15 2.71 4.47 5.09 7.27 3.07 3.7-4.23 2.08-11.19-2.1-14.47-1.5-0.54-3.71-0.92-4.81 0.56m-3.94 3.2c-0.73 1.38-1.04 4.34 0.42 5.16 0.67-1.41 1.04-4.4-0.42-5.16z" fill="#ceb095" stroke="#ceb095"/>
   <path d="m646.36 921.48c4.34-2.44 9.35 0.71 11.49 4.61 3.28 5.4 3.5 13.67-1.8199 17.86-4.17 3.12-9.75 0.07-12.02-3.92-3.5001-5.61-3.7501-14.65 2.3499-18.55m1.39 4.13c-1.52 2.51-2.59 5.5-1.61 8.44 0.74 2.91 2.48 6.61 5.92 6.8 2.25 0.17 3.55-1.91 4.17-3.77 0.76-3.99-0.3-8.35-3.15-11.3-1.76-0.46-3.56-0.65-5.33-0.17m-5.05 5.38c-0.27 1.82-0.11 4.29 2.32 4.37 0.08-2.11 0.2-4.21-0.01-6.29-1.83-0.71-2.6-0.07-2.31 1.92z" fill="#d1b196" stroke="#d1b196"/>
   <path d="m647.75 925.61c1.77-0.48 3.57-0.29 5.33 0.17 2.85 2.95 3.91 7.31 3.15 11.3-0.62 1.86-1.92 3.94-4.17 3.77-3.44-0.19-5.18-3.89-5.92-6.8-0.98-2.94 0.09-5.93 1.61-8.44z" fill="#381c07" stroke="#381c07"/>
   <path d="m622.27 926.2c1.1-1.48 3.31-1.1 4.81-0.56 4.18 3.28 5.8 10.24 2.1 14.47-2.8 2.02-6.12-0.36-7.27-3.07-1.59-3.33-2.11-7.81 0.36-10.84z" fill="#381c08" stroke="#381c08"/>
   <path d="m618.33 929.4c1.46 0.7599 1.09 3.75 0.42 5.16-1.46-0.82-1.15-3.78-0.42-5.16z" fill="#f0d5bd" stroke="#f0d5bd"/>
   <path d="m642.7 930.99c-0.29-1.99 0.48-2.63 2.31-1.92 0.21 2.08 0.09 4.18 0.01 6.29-2.43-0.08-2.59-2.55-2.32-4.37z" fill="#e5cbb2" stroke="#e5cbb2"/>
   <path d="m338.37 940.52c4.66-1.28 9.08 2.27 10.89 6.33 2.78 6.11 2.34 14.03-2.12 19.25-2.36 2.83-6.58 4.36-10.05 2.66-5.49-2.48-7.72-9.11-7.47-14.75 0.15-5.52 3.03-11.91 8.75-13.49m-0.09 5.82c-5.33 4.3199-5.14 15.43 1.75 18.11 5.53-0.03 7.15-6.93 6.49-11.37-0.09-3.91-3.9-9.52-8.24-6.74m-5.56 9.76c0.6-2.7599 1.12-5.54 1.42-8.34-2.86 1.24-4.37 6.44-1.42 8.34z" fill="#cfb194" stroke="#cfb194"/>
   <path d="m378.09 944.21c4.53-1.11 8.78 2.14 10.61 6.08 3.44 6.9 2.38 16.64-4.11 21.4-3.54 2.67-8.74 1.5-11.46-1.77-4.43-5.18-5.08-13-2.3-19.11 1.4-3.04 3.87-5.88 7.26-6.6m0.34 5.44c-6.08 4.0699-5.84 16.11 1.53 18.69 5.05-0.76 6.82-6.9 6.27-11.3-0.43-3.76-3.19-9.17-7.8-7.39m-7.17 10.48c2.58-1.72 2.1-5.19 2.66-7.88l-0.81-0.44c-3.28 0.94-2.4 5.68-1.85 8.32z" fill="#cfb195" stroke="#cfb195"/>
   <path d="m409.15 944.17c5.67-2.85 11.63 2.16 13.2 7.51 2.56 7.26 0.52 17.63-7.39 20.58-6.54 1.79-11.72-4.65-12.63-10.5-1.37-6.4 0.75-14.33 6.82-17.59m1.26 5.39c-3.94 3.44-4.16 9.71-2.18 14.25 1.08 2.87 4.86 5.1 7.5 2.69 4.45-4.2 4.47-12.12 0.28-16.51-1.41-1.64-3.97-1.86-5.6-0.43m-5.3 1.6c-1.32 2.5-1.59 5.39-1.06 8.17 1.58-2.22 2.92-5.57 1.85-8.13l-0.79-0.04z" fill="#d0b196" stroke="#d0b196"/>
   <path d="m338.28 946.34c4.34-2.78 8.15 2.83 8.24 6.74 0.66 4.44-0.96 11.34-6.49 11.37-6.89-2.68-7.08-13.79-1.75-18.11z" fill="#381c09" stroke="#381c09"/>
   <path d="m444.34 946.41c3.85-1.62 8.31 0.36 10.54 3.69 4.58 6.56 4.26 16.53-1.46 22.32-3.11 3.28-8.83 3.41-12.02 0.16-7.29-6.87-6.47-21.56 2.94-26.17m1.96 4.98c-4.25 1.9-5.15 7.47-4.47 11.63 0.53 3.08 2.41 7.18 6.16 6.85 2.95-0.29 4.53-3.3 5.28-5.83 0.69-3.77 0.5-8.12-2.17-11.12-1.04-1.52-3.1-1.95-4.8-1.53m-7.17 2.87c-0.26 2.21-1.78 5.72 0.71 7.15 0.48-2.5699 0.95-5.14 1.41-7.71-0.53 0.14-1.59 0.42-2.12 0.56z" fill="#d0b195" stroke="#d0b195"/>
   <path d="m476.37 946.44c5-2.2 10.21 1.62 12.14 6.16 2.82 6.25 2.14 14.31-2.54 19.5-3.04 3.33-8.53 3.95-11.99 0.92-7.68-6.76-7.13-21.76 2.39-26.58m0.79 5.59c-4.27 3.97-4.45 11.33-1.11 15.96 1.69 2.65 6.13 2.44 7.64-0.29 3.19-4.72 2.91-12.25-1.7-15.99-1.53-0.54-3.52-0.85-4.83 0.32m-5.4 9.31c0.79-2.47 1.36-5.02 1.47-7.61-3.02 0.83-3.53 5.64-1.47 7.61z" fill="#cfb094" stroke="#cfb094"/>
   <path d="m332.72 956.1c-2.95-1.9-1.44-7.1 1.42-8.34-0.3 2.8-0.82 5.58-1.42 8.34z" fill="#ead0b8" stroke="#ead0b8"/>
   <path d="m378.43 949.65c4.61-1.78 7.37 3.63 7.8 7.39 0.55 4.4-1.22 10.54-6.27 11.3-7.37-2.58-7.61-14.62-1.53-18.69z" fill="#391c08" stroke="#391c08"/>
   <path d="m410.41 949.56c1.63-1.43 4.19-1.21 5.6 0.43 4.19 4.39 4.17 12.31-0.28 16.51-2.64 2.41-6.42 0.18-7.5-2.69-1.98-4.54-1.76-10.81 2.18-14.25z" fill="#391d08" stroke="#391d08"/>
   <path d="m588.35 950.44c3.52-2.18 8.12-0.16 10.12 3.16 3.8 5.83 3.25 14.86-2.41 19.34-3.16 2.62-8.1 1.5-10.41-1.7-4.72-6.05-4.11-16.54 2.7-20.8m1.47 4.32c-4.54 4.19-3.94 13.35 2.14 15.84 5.61-2.0099 6.61-9.67 3.65-14.25-0.96-2.16-3.86-2.84-5.79-1.59m-4.7 1.5c-0.98 1.76-3.04 7.13 0.62 6.43 0.54-2.18 0.69-4.42 0.87-6.64-0.37 0.05-1.11 0.15-1.49 0.21z" fill="#cfb196" stroke="#cfb196"/>
   <path d="m615.07 950.21c6.25-2.85 11.66 4.1 11.96 9.81 0.98 6.17-2.73 14.93-10.04 14.34-10.23-2.7-10.9-19.46-1.92-24.15m2.81 20.41c5.71-1.61 6.77-9.04 4.33-13.69-0.98-2.38-3.91-3.63-6.16-2.17-4.45 4.23-3.88 12.94 1.83 15.86m-6.03-7.55c-0.1-2.32 2.26-5.66 0.03-7.35-1.42 1.83-3.64 6.79-0.03 7.35z" fill="#ceb094" stroke="#ceb094"/>
   <path d="m405.11 951.16 0.79 0.04c1.07 2.56-0.27 5.91-1.85 8.13-0.53-2.78-0.26-5.67 1.06-8.17z" fill="#ebd3ba" stroke="#ebd3ba"/>
   <path d="m446.3 951.39c1.7-0.42 3.76 0.01 4.8 1.53 2.67 3 2.86 7.35 2.17 11.12-0.75 2.53-2.33 5.54-5.28 5.83-3.75 0.33-5.63-3.77-6.16-6.85-0.68-4.16 0.22-9.73 4.47-11.63z" fill="#381c08" stroke="#381c08"/>
   <path d="m639.37 951.35c4.11-1.89 8.59 1.21 10.23 4.9901 2.86 5.96 1.84 14.49-3.98 18.3-3.81 2.52-8.85 0.09-10.75-3.67-3.63-6.2601-2.45-16.2 4.5-19.62m-1.81 7.94c-0.14-0.54-0.42-1.63-0.56-2.17-0.5 0.2-1.52 0.6-2.02 0.8-0.4 1.72-0.78 3.45-1.17 5.18 0.64 0.6 1.3 1.21 1.96 1.83 0.29-1.83 0.62-3.68 1.62-5.27-0.48 4.02-0.47 9.21 3.52 11.53 2.85 1.21 5.1-1.73 6.02-4.06 1.41-4.07 0.24-8.53-2.66-11.63-3.08-0.83-5.47 1.09-6.71 3.79z" fill="#d0b295" stroke="#d0b295"/>
   <path d="m371.26 960.13c-0.55-2.64-1.43-7.38 1.85-8.32l0.81 0.44c-0.56 2.69-0.08 6.16-2.66 7.88z" fill="#e6ccb3" stroke="#e6ccb3"/>
   <path d="m477.16 952.03c1.31-1.17 3.3-0.86 4.83-0.32 4.61 3.74 4.89 11.27 1.7 15.99-1.51 2.73-5.95 2.94-7.64 0.29-3.34-4.63-3.16-11.99 1.11-15.96z" fill="#381d09" stroke="#381d09"/>
   <path d="m439.13 954.26c0.53-0.14 1.59-0.42 2.12-0.56-0.46 2.57-0.93 5.14-1.41 7.71-2.49-1.43-0.97-4.94-0.71-7.15z" fill="#ecd1b8" stroke="#ecd1b8"/>
   <path d="m471.76 961.34c-2.06-1.97-1.55-6.78 1.47-7.61-0.11 2.59-0.68 5.14-1.47 7.61z" fill="#efd4bc" stroke="#efd4bc"/>
   <path d="m589.82 954.76c1.93-1.25 4.83-0.57 5.79 1.59 2.96 4.58 1.96 12.24-3.65 14.25-6.08-2.49-6.68-11.65-2.14-15.84z" fill="#391c07" stroke="#391c07"/>
   <path d="m617.88 970.62c-5.71-2.92-6.28-11.63-1.83-15.86 2.25-1.46 5.18-0.21 6.16 2.17 2.44 4.65 1.38 12.08-4.33 13.69z" fill="#381d08" stroke="#381d08"/>
   <path d="m637.56 959.29c1.24-2.7 3.63-4.62 6.71-3.79 2.9 3.1 4.07 7.56 2.66 11.63-0.92 2.33-3.17 5.27-6.02 4.06-3.99-2.32-4-7.51-3.52-11.53l0.17-0.37z" fill="#391d09" stroke="#391d09"/>
   <path d="m585.12 956.26c0.38-0.06 1.12-0.16 1.49-0.21-0.18 2.22-0.33 4.46-0.87 6.64-3.66 0.7-1.6-4.67-0.62-6.43z" fill="#e4cab0" stroke="#e4cab0"/>
   <path d="m611.85 963.07c-3.61-0.56-1.39-5.52 0.03-7.35 2.23 1.69-0.13 5.03-0.03 7.35z" fill="#e4c8af" stroke="#e4c8af"/>
   <path d="m634.98 957.92c0.5-0.2 1.52-0.6 2.02-0.8 0.14 0.54 0.42 1.63 0.56 2.17l-0.17 0.37c-1 1.59-1.33 3.44-1.62 5.27-0.66-0.62-1.32-1.23-1.96-1.83 0.39-1.73 0.77-3.46 1.17-5.18z" fill="#e4caaf" stroke="#e4caaf"/>
   <path d="m189.18 969.51c11.48 3.27 23.55 2.35 35.26 4.05 2.91 0.18 5.83-0.4 8.74 0.06 8.49 1.1 17.09-0.27 25.59 0.73 10.37 1.5 20.92-0.28 31.28 1.4 11.32 0.8 22.76-0.65 34.02 1.11 10.97 0.47 21.98-0.45 32.93 0.61 18.63 1.4901 37.4-0.6899 55.97 1.51 18-0.01 36.02 0.05 54.02 0.11 10.27 1.5099 20.68 0.75 31.03 0.9 8.67 0.14 17.34-0.05 26.01 0.12 8.28 1.17 16.65 0.89 24.99 0.85 14.66 0.11 29.32-0.02 43.98 0.07 7.35-0.23 14.65 1 22.01 0.9 21.66 0.01 43.33 0.07 65 0.1 9.64 0.14 19.3-0.41 28.92 0.52 0.34 0.12 1.03 0.36 1.37 0.47-0.61 1.62-1.1 3.29-1.51 4.99-11.95 0.08-23.9-0.03-35.85-0.03-4.01-0.08-7.94 1.33-11.94 0.82-7.96-1.25-16.1-1.08-24.05 0.08-3.99 0.63-7.89-1.08-11.87-0.54-7.66 1.15-15.42 0.47-23.13 0.59-14.66-0.26-29.32 0.1-43.99 0.01-9.98-0.16-20.01 0.56-29.92-0.86-29.32 0.06-58.67-0.24-88-0.04-7.67-0.17-15.38 0.36-22.98-0.87-12.01-0.37-24.04-0.05-36.05-0.2-19.59-2.37-39.42 0.4-59-1.93-12.66-0.37-25.39 0.72-37.99-0.94-9.72-0.45-19.51 0.56-29.19-0.74-5.38-0.75-10.84-0.01-16.21-0.89-4.83-0.79-9.73-0.31-14.6-0.47-10.54-1.11-21.16-1.5-31.59-3.51-1.71-2.51-3.4-5.02-5.09-7.52 0.46-0.37 1.38-1.09 1.84-1.46z" fill="#37220f" stroke="#37220f"/>
   <path d="m192.43 978.49c10.43 2.01 21.05 2.4 31.59 3.51 4.87 0.16 9.77-0.32 14.6 0.47 5.37 0.88 10.83 0.14 16.21 0.89 9.68 1.3 19.47 0.29 29.19 0.74 12.6 1.66 25.33 0.57 37.99 0.94 19.58 2.33 39.41-0.44 59 1.93 12.01 0.15 24.04-0.17 36.05 0.2 7.6 1.23 15.31 0.7 22.98 0.87 29.33-0.2 58.68 0.1 88 0.04 9.91 1.42 19.94 0.7 29.92 0.86 14.67 0.09 29.33-0.27 43.99-0.01 7.71-0.12 15.47 0.56 23.13-0.59 3.98-0.54 7.88 1.17 11.87 0.54 7.95-1.16 16.09-1.33 24.05-0.08 4 0.51 7.93-0.9 11.94-0.82 11.95 0 23.9 0.11 35.85 0.03-1.58 6.42-3.36 12.83-5.8 18.99-0.75 2.6-3.56 3.42-5.61 4.74l-1.56-1.24c-7.93 0.83-15.91 0.22-23.84 0.77-8.3 0.77-16.64 0.26-24.95 0.4-88.68 0.23-177.37 0.35-266.05 0.03-11.68-0.07-23.37 0.26-35.02-0.59-16.66-0.16-33.35-0.07-49.93-1.96-26.44-2.31-52.73-6.1801-79.14-8.71-4.28-2.19-8.9-3.81-12.91-6.47-4.44-4.67-7.86-10.22-11.55-15.48z" fill="#402711" stroke="#402711"/>
   <path d="m216.89 1000.4c26.41 2.53 52.7 6.4 79.14 8.71 16.58 1.89 33.27 1.8 49.93 1.96 11.65 0.85 23.34 0.52 35.02 0.59 88.68 0.32 177.37 0.2 266.05-0.03 8.31-0.14 16.65 0.37 24.95-0.4 7.93-0.55 15.91 0.06 23.84-0.77l1.56 1.24c-8.76 4.61-17.23 9.81-26.23 13.95-6.45-2.7399-11.92-8.4199-19.2-8.6799-102.66 0-205.31 0.05-307.97 0.03-7.69-0.54-16.08 1.63-21.17 7.7501-3.08 3.87-6.68 7.2799-9.9 11.02-3.91 5.1399-7.91 10.21-11.76 15.38-1.24 1.3701-2.78 3.75-4.9 2.55-3.37-3.33-2.34-8.63-1.31-12.74 2-6.4301 3.83-13.04 7.2-18.89 2.96-2.85 6.93-4.39 10.01-7.14-3.11-1.0099-6.56-1.58-9.71-0.5-2.82 1.3701-4.92 3.86-7.77 5.17-2.26 0.61-4.63 0.21-6.93 0.14 1.16-3.47 5.25-3.9 7.33-6.59-4.9-0.2-9.86-0.55-14.74 0.13-4.78 2.27-7.8 6.98-10.84 11.13-0.87 1.04-1.62 2.65-3.26 2.39-0.13-1.6799-0.82-3.72 0.6-5.03 3.08-3.46 6.73-6.44 9.02-10.53-5.22-0.39-10.49-1.8101-15.73-1.01-5.58 3.16-10.28 7.68-15.55 11.31-3.27 2.15-5.19-2.68-5.26-5.27 1.38-4.02 5.74-5.5 8.81-7.96-4.65-1.64-10.47-2.5699-14.11 1.58-3.24-0.27-6.52-0.89-9.28-2.7-0.61 0.33-1.84 0.99-2.45 1.32-1.99-2.76-4.02-5.48-6.11-8.15l0.72 0.04z" fill="#291809" stroke="#291809"/>
   <path d="m222.28 1008.6c0.61-0.33 1.84-0.99 2.45-1.32 2.76 1.81 6.04 2.43 9.28 2.7 3.64-4.15 9.46-3.22 14.11-1.58-3.07 2.46-7.43 3.94-8.81 7.96 0.07 2.59 1.99 7.42 5.26 5.27 5.27-3.63 9.97-8.15 15.55-11.31 5.24-0.8 10.51 0.62 15.73 1.01-2.29 4.09-5.94 7.0699-9.02 10.53-1.42 1.31-0.73 3.35-0.6 5.03 1.64 0.26 2.39-1.35 3.26-2.39 3.04-4.15 6.06-8.8599 10.84-11.13 4.88-0.68 9.84-0.33 14.74-0.13-2.08 2.69-6.17 3.12-7.33 6.59 2.3 0.07 4.67 0.47 6.93-0.14 2.85-1.31 4.95-3.8 7.77-5.17 3.15-1.08 6.6-0.5099 9.71 0.5-3.08 2.75-7.05 4.29-10.01 7.14-3.37 5.85-5.2 12.46-7.2 18.89-1.03 4.11-2.06 9.41 1.31 12.74 2.12 1.2 3.66-1.1799 4.9-2.55 3.85-5.1699 7.85-10.24 11.76-15.38 3.22-3.7401 6.82-7.15 9.9-11.02 5.09-6.1201 13.48-8.29 21.17-7.7501 102.66 0.02 205.31-0.03 307.97-0.03 7.28 0.26 12.75 5.94 19.2 8.6799-3.34 18.31-4.91 37-8.51 55.31-0.5 1.64-1.05 3.59-2.67 4.5-3.71-0.37-7.21-1.99-10.97-1.95-112.36-1.42-224.73-2.77-337.08-4.9301-13.01-0.33-26.04-0.41-39.04-1.21-17-22.86-33.77-45.87-50.6-68.86z" fill="#36210e" stroke="#36210e"/>
  </g>
 </g>
</svg>
